<svg id="SvgjsSvg1001" width="288" height="288" xmlns="http://www.w3.org/2000/svg" version="1.1" xmlns:xlink="http://www.w3.org/1999/xlink" xmlns:svgjs="http://svgjs.com/svgjs"><defs id="SvgjsDefs1002"></defs><g id="SvgjsG1008"><svg xmlns="http://www.w3.org/2000/svg" enable-background="new 0 0 47.5 47.5" viewBox="0 0 47.5 47.5" width="288" height="288"><defs><clipPath id="a"><path d="M0 38h38V0H0v38Z"></path></clipPath></defs><g clip-path="url(#a)" transform="matrix(1.25 0 0 -1.25 0 47.5)"><path fill="#47b2e4" d="M0 0a4 4 0 0 0-4-4h-28a4 4 0 0 0-4 4v28a4 4 0 0 0 4 4h28a4 4 0 0 0 4-4V0Z" transform="translate(37 5)" class="color3b88c3 svgShape"></path><path fill="#ffffff" d="M0 0h-1.829c-1.488 0-2.109 1.085-2.109 2.139 0 1.086.775 2.14 2.109 2.14h4.402c1.334 0 2.078-.961 2.078-2.201v-17.643c0-1.551-.992-2.418-2.326-2.418-1.333 0-2.325.867-2.325 2.418V0Z" transform="translate(17.462 25.825)" class="colorfff svgShape"></path></g></svg></g></svg>