<svg id="SvgjsSvg1016" width="288" height="288" xmlns="http://www.w3.org/2000/svg" version="1.1" xmlns:xlink="http://www.w3.org/1999/xlink" xmlns:svgjs="http://svgjs.com/svgjs"><defs id="SvgjsDefs1017"></defs><g id="SvgjsG1018"><svg xmlns="http://www.w3.org/2000/svg" enable-background="new 0 0 47.5 47.5" viewBox="0 0 47.5 47.5" width="288" height="288"><defs><clipPath id="a"><path d="M0 38h38V0H0v38Z"></path></clipPath></defs><g clip-path="url(#a)" transform="matrix(1.25 0 0 -1.25 0 47.5)"><path fill="#47b2e4" d="M0 0a4 4 0 0 0-4-4h-28a4 4 0 0 0-4 4v28a4 4 0 0 0 4 4h28a4 4 0 0 0 4-4V0Z" transform="translate(37 5)" class="color3b88c3 svgShape"></path><path fill="#ffffff" d="M0 0c1.365 0 2.42-.62 2.42-2.046 0-1.427-1.055-2.047-2.233-2.047h-10.356c-1.365 0-2.418.62-2.418 2.047 0 .65.402 1.209.712 1.581 2.574 3.069 5.365 5.861 7.721 9.271.558.806 1.086 1.767 1.086 2.883 0 1.271-.961 2.388-2.233 2.388-3.566 0-1.861-5.023-4.837-5.023-1.488 0-2.264 1.054-2.264 2.263 0 3.907 3.473 7.038 7.287 7.038s6.883-2.511 6.883-6.449C1.768 7.597-3.037 3.317-5.673 0H0Z" transform="translate(24.086 12.093)" class="colorfff svgShape"></path></g></svg></g></svg>