<svg id="SvgjsSvg1056" width="288" height="288" xmlns="http://www.w3.org/2000/svg" version="1.1" xmlns:xlink="http://www.w3.org/1999/xlink" xmlns:svgjs="http://svgjs.com/svgjs"><defs id="SvgjsDefs1057"></defs><g id="SvgjsG1058"><svg xmlns="http://www.w3.org/2000/svg" enable-background="new 0 0 47.5 47.5" viewBox="0 0 47.5 47.5" width="288" height="288"><defs><clipPath id="a"><path d="M0 38h38V0H0v38Z"></path></clipPath></defs><g clip-path="url(#a)" transform="matrix(1.25 0 0 -1.25 0 47.5)"><path fill="#47b2e4" d="M0 0a4 4 0 0 0-4-4h-28a4 4 0 0 0-4 4v28a4 4 0 0 0 4 4h28a4 4 0 0 0 4-4V0Z" transform="translate(37 5)" class="color3b88c3 svgShape"></path><path fill="#ffffff" d="M0 0c0-1.736 1.085-3.225 2.945-3.225 1.768 0 2.946 1.427 2.946 3.225 0 1.644-.992 3.225-2.946 3.225C1.178 3.225 0 1.829 0 0m-4.837 0c0 4.682 4.744 11.255 7.876 14.17.248.248.62.496.992.744.341.217.682.217.93.217.868 0 2.202-1.148 2.202-2.264 0-.433-.28-.805-.652-1.271-1.24-1.519-3.255-3.503-4.279-4.961l.062-.062c.559.248 1.271.372 1.955.372 3.72 0 6.479-3.286 6.479-6.945 0-4.03-3.194-7.689-7.783-7.689-4.774 0-7.782 3.565-7.782 7.689" transform="translate(16.056 15.317)" class="colorfff svgShape"></path></g></svg></g></svg>