<svg id="SvgjsSvg1066" width="288" height="288" xmlns="http://www.w3.org/2000/svg" version="1.1" xmlns:xlink="http://www.w3.org/1999/xlink" xmlns:svgjs="http://svgjs.com/svgjs"><defs id="SvgjsDefs1067"></defs><g id="SvgjsG1068"><svg xmlns="http://www.w3.org/2000/svg" viewBox="0 0 47.5 47.5" width="288" height="288"><defs><clipPath id="a"><path d="M0 38h38V0H0v38Z"></path></clipPath></defs><g clip-path="url(#a)" transform="matrix(1.25 0 0 -1.25 0 47.5)"><path fill="#47b2e4" d="M37 5a4 4 0 0 0-4-4H5a4 4 0 0 0-4 4v28a4 4 0 0 0 4 4h28a4 4 0 0 0 4-4V5Z" class="color3b88c3 svgShape"></path><path fill="#ffffff" d="M21.357 25.797H13.42c-1.674 0-2.294 1.085-2.294 2.139 0 1.086.589 2.14 2.294 2.14h11.224c1.582 0 2.233-1.426 2.233-2.233 0-.62-.341-1.271-.713-2.046l-7.69-15.627c-.868-1.737-1.209-2.356-2.604-2.356-1.706 0-2.574 1.302-2.574 2.201 0 .372.093.651.311 1.085l7.75 14.697Z" class="colorfff svgShape"></path></g></svg></g></svg>