<svg id="SvgjsSvg1086" width="288" height="288" xmlns="http://www.w3.org/2000/svg" version="1.1" xmlns:xlink="http://www.w3.org/1999/xlink" xmlns:svgjs="http://svgjs.com/svgjs"><defs id="SvgjsDefs1087"></defs><g id="SvgjsG1088"><svg xmlns="http://www.w3.org/2000/svg" enable-background="new 0 0 47.5 47.5" viewBox="0 0 47.5 47.5" width="288" height="288"><defs><clipPath id="a"><path d="M0 38h38V0H0v38Z"></path></clipPath></defs><g clip-path="url(#a)" transform="matrix(1.25 0 0 -1.25 0 47.5)"><path fill="#47b2e4" d="M0 0a4 4 0 0 0-4-4h-28a4 4 0 0 0-4 4v28a4 4 0 0 0 4 4h28a4 4 0 0 0 4-4V0Z" transform="translate(37 5)" class="color3b88c3 svgShape"></path><path fill="#ffffff" d="M0 0c0 1.736-1.086 3.225-2.946 3.225-1.767 0-2.945-1.427-2.945-3.225 0-1.644.992-3.225 2.945-3.225C-1.178-3.225 0-1.829 0 0m4.837 0c0-4.682-4.743-11.255-7.876-14.17-.248-.248-.62-.496-.992-.744-.341-.217-.682-.217-.93-.217-.868 0-2.202 1.148-2.202 2.264 0 .433.28.805.652 1.27 1.24 1.52 3.256 3.504 4.279 4.961l-.062.063c-.559-.248-1.272-.372-1.954-.372-3.72 0-6.48 3.286-6.48 6.945 0 4.031 3.193 7.689 7.782 7.689C1.83 7.689 4.837 4.124 4.837 0" transform="translate(21.947 22.759)" class="colorfff svgShape"></path></g></svg></g></svg>